<svg id="Chiropractic_Care" xmlns="http://www.w3.org/2000/svg" width="75.158" height="75.145" viewBox="0 0 75.158 75.145">
  <path id="Path_1576" data-name="Path 1576" d="M70.92,169.017c-1.3,3.551-2.531,6.939-3.768,10.326q-1.216,3.331-2.434,6.662a1.583,1.583,0,0,1-2.217,1.158q-3.969-1-7.937-2a1.477,1.477,0,0,1-1.232-2.059c2.494-9.4,4.969-18.8,7.5-28.193a13.075,13.075,0,0,1,12.741-9.676c1.786,0,3.571,0,5.357,0A4.418,4.418,0,0,0,83.45,140.9a1.463,1.463,0,0,1,1.593-1.527q5.723-.013,11.447,0a1.481,1.481,0,0,1,1.634,1.563,4.424,4.424,0,0,0,4.481,4.3c1.737.006,3.473,0,5.21,0a13.178,13.178,0,0,1,13.024,9.913c.54,1.975,1.046,3.959,1.563,5.94.274,1.053-.089,1.838-.942,2.061-.908.238-1.612-.256-1.9-1.334-.584-2.165-1.114-4.346-1.761-6.492a10.153,10.153,0,0,0-9.543-7.151c-1.858-.028-3.718,0-5.577-.007a7.289,7.289,0,0,1-7.2-5.365c-.122-.4-.3-.57-.713-.511a4.918,4.918,0,0,1-.66.007,5.417,5.417,0,0,0-2.029.068c-.582.261-.415,1.158-.661,1.749a1.453,1.453,0,0,1-1.745.966,1.421,1.421,0,0,1-1.081-1.6c.037-.381.141-.755.22-1.157-.156-.011-.277-.027-.4-.027a5.872,5.872,0,0,0-1.964.05c-.6.224-.485,1.081-.773,1.628a7.267,7.267,0,0,1-6.641,4.183c-1.736.045-3.473,0-5.21.006a10.31,10.31,0,0,0-10.309,7.927q-3.416,12.9-6.844,25.8c-.152.57-.1.8.522.933,1.5.324,2.984.715,4.467,1.109.457.121.674.061.854-.435q3.46-9.557,6.975-19.094a2.444,2.444,0,0,0-.043-1.358,40.8,40.8,0,0,1-.675-7.358,1.47,1.47,0,1,1,2.925-.044,44.952,44.952,0,0,0,2.728,14.611,68.158,68.158,0,0,1,2.773,9.314,30.9,30.9,0,0,1,.335,7.159c-.02.447.047.632.494.76a7.129,7.129,0,0,1,5.122,5.063.647.647,0,0,0,.768.54,6.32,6.32,0,0,1,2.53.272,4.369,4.369,0,0,1,2.862,4.049q.026,3.008,0,6.017a4.366,4.366,0,0,1-4.366,4.323q-5.467.023-10.933,0a8.216,8.216,0,0,1-1.6-.17c-.417-.085-.52.069-.536.433-.045,1.026-.089,2.052-.161,3.077-.028.4.122.495.5.494q8.512-.015,17.024,0c.316,0,.488-.076.548-.424a8.772,8.772,0,0,1,.343-1.269,1.445,1.445,0,0,1,1.759-1.043,1.509,1.509,0,0,1,1.07,1.827c-.057.282-.135.56-.219.907h3.946c4.134,0,8.267-.018,12.4.018.673.006.79-.183.769-.816a41.77,41.77,0,0,0-3.573-14.934,29.149,29.149,0,0,1-2.268-13.45,32.931,32.931,0,0,1,1.823-8.265,85.353,85.353,0,0,0,3.378-11.5,39.81,39.81,0,0,0,.659-6.849c.01-1.07.569-1.734,1.457-1.741s1.467.66,1.472,1.723a41.324,41.324,0,0,1-.757,7.717,1.8,1.8,0,0,0,.072.992q3.465,9.478,6.913,18.962c.177.489.37.635.891.494q2.257-.613,4.54-1.125c.563-.126.6-.367.46-.857-.609-2.209-1.186-4.426-1.765-6.643a3.075,3.075,0,0,1-.141-.931,1.456,1.456,0,0,1,2.846-.255q1.263,4.62,2.467,9.256a1.421,1.421,0,0,1-1.09,1.738q-4.213,1.079-8.441,2.1c-.969.232-1.545-.139-1.907-1.129q-2.927-8-5.844-16.006c-.108-.3-.223-.591-.361-.958a10.78,10.78,0,0,0-.732,2.023,76.349,76.349,0,0,0-2.417,7.666,25.353,25.353,0,0,0,1.1,14.964,63.538,63.538,0,0,1,3.21,9.553,45.337,45.337,0,0,1,.958,9.606,1.493,1.493,0,0,1-1.7,1.575q-6.861.005-13.722,0H70.742c-1.505,0-1.973-.469-1.971-1.967a46.478,46.478,0,0,1,.275-5.344c.063-.532-.045-.893-.575-1.093a1.494,1.494,0,0,1-.551-.356,3.711,3.711,0,0,0-3.071-.943c-3.252.052-6.506.02-9.759.018-1.363,0-1.876-.5-1.876-1.841q0-5.5,0-11.007c0-1.314.506-1.827,1.81-1.828q5.54,0,11.08.008a1.513,1.513,0,0,0,1.056-.371,10.809,10.809,0,0,1,6.574-2.538c.739-.031.868-.3.906-.929a27.658,27.658,0,0,0-1.535-10.8C72.381,173.418,71.691,171.314,70.92,169.017Zm9.33,24.064a4.422,4.422,0,0,0-3.04-2.792,9.687,9.687,0,0,0-2.7-.14,8.3,8.3,0,0,0-5.922,2.293,2.229,2.229,0,0,1-1.644.646c-3.374-.024-6.749,0-10.124-.025-.552,0-.695.144-.688.691.031,2.445.036,4.891,0,7.336-.009.62.114.825.789.816,3.325-.041,6.651,0,9.977-.031a2.324,2.324,0,0,1,1.712.663,8.292,8.292,0,0,0,5.785,2.276c3.423.02,6.847.011,10.271.007a1.524,1.524,0,0,0,1.718-1.711c.007-1.761,0-3.521,0-5.282,0-1.286-.531-1.815-1.831-1.816-2.739,0-5.478,0-8.217,0a1.5,1.5,0,0,1-1.691-1.433c-.016-.907.637-1.491,1.7-1.5C77.612,193.075,78.881,193.081,80.25,193.081Z" transform="translate(-53.213 -139.362)" fill="#2f4d18"/>
  <path id="Path_1577" data-name="Path 1577" d="M324.086,251.212c.556.606.94,1.085.782,1.77a1.417,1.417,0,0,1-2.285.849,43.2,43.2,0,0,1-3.218-3.2,1.371,1.371,0,0,1,.19-2.03q1.325-1.369,2.694-2.694a1.472,1.472,0,0,1,2.151-.183,1.456,1.456,0,0,1,.048,2.151c-.072.094-.15.182-.334.4h2.045c1,0,2-.007,3,0a1.471,1.471,0,1,1-.029,2.926C327.506,251.217,325.88,251.212,324.086,251.212Z" transform="translate(-279.986 -229.786)" fill="#2f4d18"/>
  <path id="Path_1578" data-name="Path 1578" d="M319.079,496.429c0-.488-.015-.976,0-1.463a1.459,1.459,0,0,1,1.308-1.43,1.406,1.406,0,0,1,1.524,1.094,12.065,12.065,0,0,1,.043,3.638,1.356,1.356,0,0,1-1.565,1.116,1.419,1.419,0,0,1-1.3-1.418c-.012-.268,0-.536,0-.8q0-.366,0-.732Z" transform="translate(-280.052 -441.546)" fill="#2f4d18"/>
  <path id="Path_1579" data-name="Path 1579" d="M286.94,321.6a1.55,1.55,0,0,1-1.271,1.563,1.4,1.4,0,0,1-1.556-.947,30.17,30.17,0,0,1-.618-3.374,1.435,1.435,0,0,1,1.178-1.473,1.406,1.406,0,0,1,1.631.933C286.575,319.414,286.742,320.549,286.94,321.6Z" transform="translate(-249.688 -291.221)" fill="#2f4d18"/>
  <path id="Path_1580" data-name="Path 1580" d="M297.734,376.185a1.345,1.345,0,0,1,1.4.961c.33.967.632,1.946.9,2.932a1.426,1.426,0,0,1-.958,1.741,1.362,1.362,0,0,1-1.785-.836,31.4,31.4,0,0,1-.968-3.138A1.393,1.393,0,0,1,297.734,376.185Z" transform="translate(-260.61 -341.426)" fill="#2f4d18"/>
  <path id="Path_1581" data-name="Path 1581" d="M316.039,555.591c-.1.567-.234,1.533-.432,2.485a1.437,1.437,0,0,1-1.6,1.174,1.464,1.464,0,0,1-1.243-1.693c.116-.917.246-1.834.407-2.745a1.524,1.524,0,0,1,1.665-1.388C315.68,553.548,316.129,554.194,316.039,555.591Z" transform="translate(-274.657 -492.638)" fill="#2f4d18"/>
  <path id="Path_1582" data-name="Path 1582" d="M281.86,260.464c0,.488.014.976,0,1.463a1.411,1.411,0,0,1-1.17,1.385,1.35,1.35,0,0,1-1.618-.931,9.729,9.729,0,0,1-.027-3.911,1.359,1.359,0,0,1,1.513-1,1.494,1.494,0,0,1,1.285,1.384c.028.535.005,1.073.005,1.61Z" transform="translate(-245.738 -240.125)" fill="#2f4d18"/>
  <path id="Path_1583" data-name="Path 1583" d="M313.354,434.266a1.248,1.248,0,0,1,1.089,1.017,32.676,32.676,0,0,1,.585,3.229,1.389,1.389,0,0,1-1.19,1.51,1.43,1.43,0,0,1-1.683-1.058c-.219-1.022-.4-2.055-.543-3.091C311.49,434.991,312.2,434.25,313.354,434.266Z" transform="translate(-273.675 -390.982)" fill="#2f4d18"/>
  <path id="Path_1584" data-name="Path 1584" d="M286.155,199.891c-.127.807-.25,1.8-.447,2.772a1.444,1.444,0,0,1-2.853-.454c.119-.988.267-1.975.466-2.95a1.376,1.376,0,0,1,1.714-1.164C285.78,198.226,286.226,198.863,286.155,199.891Z" transform="translate(-249.14 -189.449)" fill="#2f4d18"/>
  <path id="Path_1585" data-name="Path 1585" d="M518.752,325.382a1.464,1.464,0,1,1-1.519,1.368A1.485,1.485,0,0,1,518.752,325.382Z" transform="translate(-449.125 -298.078)" fill="#2f4d18"/>
</svg>
