<svg xmlns="http://www.w3.org/2000/svg" xmlns:xlink="http://www.w3.org/1999/xlink" width="26.369" height="26.444" viewBox="0 0 26.369 26.444">
  <defs>
    <clipPath id="clip-path">
      <rect id="Rectangle_142" data-name="Rectangle 142" width="26.369" height="26.444" transform="translate(0 0)" fill="#2f4d18"/>
    </clipPath>
  </defs>
  <g id="Contact_Us_Call_us" transform="translate(0)">
    <g id="Group_121" data-name="Group 121" transform="translate(0 0)" clip-path="url(#clip-path)">
      <path id="Path_182" data-name="Path 182" d="M18.206,34.029a9.561,9.561,0,0,1-2.965-.547A14.927,14.927,0,0,1,11.9,31.807a38.191,38.191,0,0,1-4.166-3.02A25.071,25.071,0,0,1,2.85,23.16a30.58,30.58,0,0,1-1.692-2.838,10.468,10.468,0,0,1-1.09-3.413A6.986,6.986,0,0,1,1.31,11.735a5.51,5.51,0,0,1,1.346-1.307A2.527,2.527,0,0,1,4.4,9.917c.311.036.628.035.936.087a1.411,1.411,0,0,1,1.195.954Q7.37,13.379,8.215,15.8a1.932,1.932,0,0,1,.07.864,1.1,1.1,0,0,1-.272.59c-.246.285-.5.563-.756.838-.321.345-.639.692-.973,1.023a.662.662,0,0,0-.165.727,2.812,2.812,0,0,0,.189.444A16.681,16.681,0,0,0,11.73,26.42a17.484,17.484,0,0,0,2.158,1.335,2.027,2.027,0,0,0,.5.146.4.4,0,0,0,.358-.116q.634-.592,1.267-1.184c.144-.135.288-.27.427-.409a1.561,1.561,0,0,1,1.652-.428c.613.182,1.225.371,1.83.58,1.007.347,2.007.713,3.011,1.071l.026.009a1.433,1.433,0,0,1,1.028,1.237,5.087,5.087,0,0,1,.032,1.633,2.728,2.728,0,0,1-.681,1.322,6.293,6.293,0,0,1-3.905,2.254c-.406.069-.816.107-1.225.159" transform="translate(0 -7.585)" fill="#2f4d18"/>
      <path id="Path_183" data-name="Path 183" d="M44.548,17.122a11.263,11.263,0,0,1,5.284,1.423A11.124,11.124,0,0,1,55.14,25.24a11.617,11.617,0,0,1,.449,2.969,2.921,2.921,0,0,1-.043.615.683.683,0,0,1-.706.56c-.38-.028-.684-.186-.727-.58-.03-.276-.065-.553-.071-.83a9.61,9.61,0,0,0-9.226-9.294c-.3-.013-.609-.035-.91-.078a.65.65,0,0,1-.544-.695.686.686,0,0,1,.544-.729c.212-.033.428-.038.642-.056" transform="translate(-31.332 -16.163)" fill="#2f4d18"/>
      <path id="Path_184" data-name="Path 184" d="M55.722,40.372a3.051,3.051,0,0,1-.042.413.716.716,0,0,1-.729.556.67.67,0,0,1-.724-.614c-.04-.288-.034-.582-.08-.868a4.543,4.543,0,0,0-4.1-3.891c-.214-.021-.427-.051-.642-.067a.67.67,0,0,1-.574-.872.714.714,0,0,1,.682-.6,4.78,4.78,0,0,1,1.439.15,5.886,5.886,0,0,1,4.575,4.41,11.77,11.77,0,0,1,.221,1.376Z" transform="translate(-35.503 -29.413)" fill="#2f4d18"/>
    </g>
  </g>
</svg>
