<svg id="Contact_Us_Email" xmlns="http://www.w3.org/2000/svg" xmlns:xlink="http://www.w3.org/1999/xlink" width="24.954" height="18.828" viewBox="0 0 24.954 18.828">
  <defs>
    <clipPath id="clip-path">
      <rect id="Rectangle_144" data-name="Rectangle 144" width="24.954" height="18.828" fill="#2f4d18" stroke="#2f4d18" stroke-width="1"/>
    </clipPath>
  </defs>
  <g id="Group_125" data-name="Group 125" clip-path="url(#clip-path)">
    <path id="Path_187" data-name="Path 187" d="M2.114,0H22.84c.084.012.167.023.25.038a2.208,2.208,0,0,1,1.863,2.225q0,.992,0,1.985,0,6.152,0,12.3a2.345,2.345,0,0,1-.146.847,2.219,2.219,0,0,1-2.155,1.429H2.214a2.217,2.217,0,0,1-2.1-1.522C.064,17.158.038,17,0,16.852V1.986a.558.558,0,0,0,.022-.072A2.177,2.177,0,0,1,1.63.092,4.011,4.011,0,0,1,2.114,0M23.381,2.573c-.053.05-.078.073-.1.1q-4.6,4.6-9.2,9.2a2.208,2.208,0,0,1-3.207,0Q6.284,7.274,1.692,2.687c-.031-.031-.066-.059-.113-.1,0,.058-.007.1-.007.132q0,6.923,0,13.845a.883.883,0,0,0,.023.227.644.644,0,0,0,.685.471q10.184,0,20.367,0a.7.7,0,0,0,.738-.742q-.012-6.891,0-13.782Zm-1.239-.983H2.812c.038.04.064.068.09.095l8.064,8.061c.342.342.679.689,1.029,1.022a.867.867,0,0,0,.357.2.637.637,0,0,0,.638-.224q4.53-4.532,9.062-9.061c.027-.026.052-.054.09-.094" transform="translate(-0.001 -0.001)" fill="#2f4d18" stroke="#2f4d18" stroke-width="1"/>
  </g>
</svg>
