<svg id="Contact_Us_Location" xmlns="http://www.w3.org/2000/svg" xmlns:xlink="http://www.w3.org/1999/xlink" width="24.246" height="30.909" viewBox="0 0 24.246 30.909">
  <defs>
    <clipPath id="clip-path">
      <rect id="Rectangle_143" data-name="Rectangle 143" width="24.246" height="30.909" fill="#2f4d18"/>
    </clipPath>
  </defs>
  <g id="Group_123" data-name="Group 123" clip-path="url(#clip-path)">
    <path id="Path_185" data-name="Path 185" d="M11.111,89.18l-.948-.078a20.268,20.268,0,0,1-6.249-1.434A9.043,9.043,0,0,1,1.278,86.1a5.142,5.142,0,0,1-.813-.92,2.352,2.352,0,0,1,.529-3.324A6.32,6.32,0,0,1,3.322,80.78,22.178,22.178,0,0,1,7.2,80.142c.231-.021.463-.035.694-.057.333-.032.333-.034.507.285-.46.07-.917.131-1.372.21a15.079,15.079,0,0,0-4.045,1.193,4.442,4.442,0,0,0-1.292.879,1.208,1.208,0,0,0,.011,1.9A5.058,5.058,0,0,0,3.426,85.6a16.993,16.993,0,0,0,3.838.993,32,32,0,0,0,6.545.315,23.409,23.409,0,0,0,6.483-1.11,6.634,6.634,0,0,0,1.781-.866,3.486,3.486,0,0,0,.641-.589,1.061,1.061,0,0,0,.005-1.469,4.052,4.052,0,0,0-.878-.764,9.535,9.535,0,0,0-3.1-1.2c-.884-.2-1.783-.331-2.676-.493l-.232-.041c.178-.323.179-.328.505-.287,1.2.15,2.395.281,3.586.464a8.734,8.734,0,0,1,2.423.746,3.983,3.983,0,0,1,1.258.891,2.33,2.33,0,0,1,.6,1.189.769.769,0,0,0,.036.112v.557a4.077,4.077,0,0,1-2.039,2.64,12.183,12.183,0,0,1-1.585.861A19.558,19.558,0,0,1,14.148,89.1l-.967.079Z" transform="translate(0 -58.271)" fill="#2f4d18"/>
    <path id="Path_186" data-name="Path 186" d="M18.952,25.344c-.393-.453-.784-.894-1.166-1.344a65.32,65.32,0,0,1-5.753-7.736,27.58,27.58,0,0,1-1.979-3.8A8.045,8.045,0,0,1,10.182,5.8,9.283,9.283,0,0,1,17.624.107,9.575,9.575,0,0,1,28.308,7.543a8.583,8.583,0,0,1-.7,5.514,33.747,33.747,0,0,1-2.988,5.131,74.277,74.277,0,0,1-5.559,7.038c-.031.035-.063.068-.109.119M23.743,8.767a4.787,4.787,0,1,0-4.808,4.781,4.79,4.79,0,0,0,4.808-4.781" transform="translate(-6.837 0)" fill="#2f4d18"/>
  </g>
</svg>
