<svg xmlns="http://www.w3.org/2000/svg" xmlns:xlink="http://www.w3.org/1999/xlink" width="22.377" height="22.377" viewBox="0 0 22.377 22.377">
  <defs>
    <clipPath id="clip-path">
      <rect id="Rectangle_4" data-name="Rectangle 4" width="22.377" height="22.377" fill="#fff"/>
    </clipPath>
  </defs>
  <g id="F_Instagram" transform="translate(0)">
    <g id="Group_5" data-name="Group 5" transform="translate(0)" clip-path="url(#clip-path)">
      <path id="Path_6" data-name="Path 6" d="M0,11.184q0-2.35,0-4.7A6.28,6.28,0,0,1,1.022,3.005,6.429,6.429,0,0,1,5.034.165,5.872,5.872,0,0,1,6.425,0c3.175,0,6.35-.007,9.525,0a6.265,6.265,0,0,1,4.241,1.638,6.379,6.379,0,0,1,2.019,3.387,5.992,5.992,0,0,1,.165,1.383c0,3.183.008,6.366,0,9.548a6.239,6.239,0,0,1-1.42,3.969,6.408,6.408,0,0,1-3.633,2.285,6.224,6.224,0,0,1-1.431.16H11.3c-1.6,0-3.191,0-4.786,0A6.513,6.513,0,0,1,.244,17.649a6.187,6.187,0,0,1-.231-1.357Q0,16.08,0,15.868q0-2.342,0-4.684M11.19,1.746H6.522A4.756,4.756,0,0,0,1.747,6.5q-.007,4.688,0,9.375a4.754,4.754,0,0,0,4.767,4.754q4.676-.006,9.352,0a4.583,4.583,0,0,0,.935-.09,4.769,4.769,0,0,0,3.829-4.69q0-4.66,0-9.32c0-.162-.01-.324-.024-.485a4.6,4.6,0,0,0-.5-1.7,4.754,4.754,0,0,0-4.226-2.591c-1.564,0-3.128,0-4.692,0" transform="translate(0 0.001)" fill="#fff"/>
      <path id="Path_7" data-name="Path 7" d="M148.853,142.789a6.032,6.032,0,1,1-6.032,6.028,6.038,6.038,0,0,1,6.032-6.028m-.007,10.317a4.283,4.283,0,1,0-4.278-4.29,4.291,4.291,0,0,0,4.278,4.29" transform="translate(-137.664 -137.634)" fill="#fff"/>
      <path id="Path_8" data-name="Path 8" d="M455.972,117.919a.874.874,0,1,1,.9-.846.872.872,0,0,1-.9.846" transform="translate(-438.692 -111.976)" fill="#fff"/>
    </g>
  </g>
</svg>
