<svg xmlns="http://www.w3.org/2000/svg" width="40.432" height="40.437" viewBox="0 0 40.432 40.437">
  <path id="H_Log_In" d="M-11.979,93.86A20.078,20.078,0,0,1-32.138,73.176,20.106,20.106,0,0,1-11.474,53.428,20.1,20.1,0,0,1,8.283,74.116,20.064,20.064,0,0,1-11.979,93.86Zm0-3.5c.4,0,.8,0,1.2,0a1.821,1.821,0,0,0,.218-.015A17.906,17.906,0,0,0,.483,84.908,2.229,2.229,0,0,0,.511,81.76a18.53,18.53,0,0,0-4.28-3.511,15.469,15.469,0,0,0-11.287-1.966,17.219,17.219,0,0,0-9.373,5.549,2.229,2.229,0,0,0-.017,2.96A16.386,16.386,0,0,0-11.977,90.364Zm5.814-23.076a5.775,5.775,0,0,0-5.784-5.773,5.782,5.782,0,0,0-5.747,5.778,5.78,5.78,0,0,0,5.825,5.773A5.778,5.778,0,0,0-6.163,67.288Z" transform="translate(32.143 -53.423)" fill="#bdd3ae"/>
</svg>
