<svg id="H_Time_Icon" xmlns="http://www.w3.org/2000/svg" width="24.819" height="24.816" viewBox="0 0 24.819 24.816">
  <path id="Path_1601" data-name="Path 1601" d="M-18.194,15.332A12.4,12.4,0,0,1-5.754,2.921,12.425,12.425,0,0,1,6.625,15.343,12.454,12.454,0,0,1-5.8,27.737,12.429,12.429,0,0,1-18.194,15.332Zm2.111-.03A10.285,10.285,0,0,0-5.842,25.623,10.305,10.305,0,0,0,4.51,15.4,10.287,10.287,0,0,0-5.74,5.029,10.271,10.271,0,0,0-16.083,15.3Z" transform="translate(18.194 -2.921)" fill="#fff"/>
  <path id="Path_1602" data-name="Path 1602" d="M-5.159,12.321c0-1.086,0-2.173,0-3.258,0-.863.389-1.339,1.063-1.327.645.012,1.018.484,1.018,1.3,0,1.964.011,3.928-.008,5.89a1.25,1.25,0,0,0,.415.985c1.4,1.375,2.784,2.769,4.171,4.159.608.611.662,1.22.165,1.692-.481.456-1.05.391-1.645-.2-1.553-1.548-3.094-3.109-4.659-4.645a1.691,1.691,0,0,1-.534-1.339c.023-1.086.006-2.172.006-3.258Z" transform="translate(16.517 -3.541)" fill="#fff"/>
</svg>
