<svg id="Massage_Therapy_" data-name="Massage_Therapy " xmlns="http://www.w3.org/2000/svg" width="75.55" height="75.529" viewBox="0 0 75.55 75.529">
  <path id="Path_1586" data-name="Path 1586" d="M618.3,266.8c-.164,1.259-.331,2.48-.481,3.7-.745,6.065-1.591,12.12-2.2,18.2a42.951,42.951,0,0,0,2.759,19.925c.48,1.245.056,1.947-1.284,1.947q-20.373.007-40.745,0c-1.3,0-1.774-.681-1.3-1.875a45.319,45.319,0,0,0,2.978-16.85,83.123,83.123,0,0,0-.943-9.777c-.588-4.922-1.229-9.837-1.85-14.755-.019-.148-.068-.292-.152-.64-.619.842-1.146,1.543-1.655,2.256q-5.983,8.383-11.961,16.769a4.076,4.076,0,0,1-.587.724,1.124,1.124,0,0,1-1.889-.623,3.416,3.416,0,0,1-.036-.746q0-9.413-.01-18.827a3.464,3.464,0,0,1,.463-1.776c3.141-5.57,6.186-11.2,9.431-16.706,2.151-3.652,5.7-5.369,9.746-6.128a37.976,37.976,0,0,1,6.45-.2,3.691,3.691,0,0,0,3.958-3.312c.12-.644.229-1.29.338-1.936a1.2,1.2,0,0,1,1.272-1.12q6.135-.013,12.27,0a1.171,1.171,0,0,1,1.223,1.065c.138.7.245,1.414.369,2.12a3.683,3.683,0,0,0,3.7,3.179,52.211,52.211,0,0,1,6.546.174,15.408,15.408,0,0,1,8.943,4.7,6.5,6.5,0,0,1,.948,1.386q4.7,8.36,9.411,16.717a3.632,3.632,0,0,1,.484,1.864q-.028,9.32-.007,18.64c0,.734.056,1.5-.838,1.772-.841.258-1.239-.359-1.646-.928q-6.5-9.106-13.005-18.208C618.82,267.291,618.709,266.98,618.3,266.8Zm13.586,14.648a1.007,1.007,0,0,0,.17-.817c.007-4.59,0-9.18.018-13.77a3.6,3.6,0,0,0-.5-1.859c-2.7-4.78-5.362-9.582-8.076-14.353a12.457,12.457,0,0,0-1.759-2.858,12.958,12.958,0,0,0-7.069-3.766,36.6,36.6,0,0,0-6.074-.2c-3.641-.029-5.926-1.9-6.549-5.494-.12-.693-.4-.9-1.1-.888-2.778.041-5.558.056-8.336-.006-.893-.02-1.156.311-1.281,1.131a5.891,5.891,0,0,1-5.252,5.168,31.822,31.822,0,0,1-4.489.079,13.759,13.759,0,0,0-4.612.646c-2.37.831-4.617,2-5.91,4.2-3.175,5.4-6.174,10.913-9.254,16.373a3.462,3.462,0,0,0-.462,1.777c.018,4.558.006,9.117.013,13.675a1.3,1.3,0,0,0,.145.932c.165-.215.3-.379.423-.551,3.558-4.974,7.035-10.009,10.709-14.9,1.531-2.037,2.58-4.059,2.165-6.65a2.923,2.923,0,0,1,.01-.561c.036-.981.419-1.457,1.184-1.474.786-.017,1.229.526,1.24,1.516.02,1.717-.057,3.441.08,5.148.576,7.152,1.665,14.246,2.569,21.359a50.562,50.562,0,0,1-1.825,22.1c-.179.556-.181.749.5.748q18.125-.025,36.25,0c.723,0,.728-.208.524-.8a44.661,44.661,0,0,1-1.491-5.884c-1.38-6.91-.671-13.789.217-20.682.944-7.326,2.3-14.616,2.119-22.052-.022-.925.457-1.455,1.2-1.465s1.2.505,1.22,1.446c.019,1.061.049,2.125,0,3.184a2.68,2.68,0,0,0,.6,1.8c1.112,1.506,2.2,3.032,3.284,4.556C625.61,272.644,628.724,277.013,631.887,281.447Z" transform="translate(-558.942 -235.047)" fill="#2f4d18"/>
  <path id="Path_1587" data-name="Path 1587" d="M726.35,518.832c0-1.849-.007-1.828-1.748-2.346a7.518,7.518,0,0,1-3.173-1.728,3.965,3.965,0,0,1,.088-6.22,9.04,9.04,0,0,1,6.713-2.04,8.706,8.706,0,0,1,4.973,1.684c2.674,2.022,2.607,5.185-.143,7.12a7.93,7.93,0,0,1-3.529,1.408c-.6.081-.772.341-.748.912.038.9.029,1.81,0,2.714-.029.86-.508,1.339-1.261,1.3a1.161,1.161,0,0,1-1.166-1.3C726.34,519.83,726.351,519.331,726.35,518.832Zm1.212-4.535a6.32,6.32,0,0,0,4.349-1.381,1.526,1.526,0,0,0-.047-2.5c-1.969-1.713-6.281-1.82-8.348-.207-1.209.944-1.206,2.1.05,2.987A6.608,6.608,0,0,0,727.562,514.3Z" transform="translate(-689.796 -455.623)" fill="#2f4d18"/>
  <path id="Path_1588" data-name="Path 1588" d="M728.906,271.654a4.827,4.827,0,0,0,.049,1.847c.265.581,1.1.352,1.675.546a8.958,8.958,0,0,1,2.972,1.536,4.028,4.028,0,0,1,.165,6.359,8.259,8.259,0,0,1-5.4,2.044,9.4,9.4,0,0,1-6.453-1.723,4.088,4.088,0,0,1-.083-6.781,7.967,7.967,0,0,1,3.919-1.648c.584-.089.712-.322.694-.843-.031-.9-.028-1.811-.007-2.716.02-.885.454-1.354,1.2-1.363s1.195.463,1.225,1.337c.016.468,0,.937,0,1.4Zm-1.227,9.786a6.083,6.083,0,0,0,4.116-1.171,1.647,1.647,0,0,0,.035-2.826c-2.048-1.654-6.3-1.644-8.354.02a1.6,1.6,0,0,0,.053,2.8A6.088,6.088,0,0,0,727.679,281.44Z" transform="translate(-689.877 -262.566)" fill="#2f4d18"/>
  <path id="Path_1589" data-name="Path 1589" d="M727.719,440.434a8.858,8.858,0,0,1-5.888-1.846,4.08,4.08,0,0,1,.151-6.77c3.375-2.549,9.281-2.3,11.954.5a4.02,4.02,0,0,1-.473,6.332A8.809,8.809,0,0,1,727.719,440.434Zm-3.145-6.361c-.477-.616-.477-.616-.7-.525a1.755,1.755,0,0,0-.467,3c1.91,1.664,6.252,1.793,8.279.247,1.329-1.014,1.331-2.166-.07-3.087-1.948-1.279-4.084-1.232-6.273-.785C724.746,433.043,724.434,433.27,724.574,434.073Z" transform="translate(-689.906 -393.512)" fill="#2f4d18"/>
  <path id="Path_1590" data-name="Path 1590" d="M688.09,381.173c-.317,0-.473.007-.628,0a1.267,1.267,0,0,1-1.352-1.242,1.182,1.182,0,0,1,1.3-1.183,12.053,12.053,0,0,0,4.117-.717,5.856,5.856,0,0,0,4.118-5.642q.058-1.628,1.287-1.572c.8.038,1.188.608,1.154,1.7a8.486,8.486,0,0,1-6.386,8.057A18.373,18.373,0,0,1,688.09,381.173Z" transform="translate(-662.28 -345.376)" fill="#2f4d18"/>
  <path id="Path_1591" data-name="Path 1591" d="M771.046,372.521c-.01-1.13.391-1.685,1.156-1.71a1.187,1.187,0,0,1,1.272,1.3c.125,4.166,2.707,5.793,5.932,6.422a19.241,19.241,0,0,0,2.413.223,1.2,1.2,0,1,1-.057,2.4c-2.881-.074-5.634-.6-7.923-2.537A8.252,8.252,0,0,1,771.046,372.521Z" transform="translate(-731.304 -345.372)" fill="#2f4d18"/>
</svg>
