<svg id="Nutrition" xmlns="http://www.w3.org/2000/svg" width="70.961" height="77.912" viewBox="0 0 70.961 77.912">
  <path id="Path_1592" data-name="Path 1592" d="M128.888,180.833a4.78,4.78,0,0,0,.9-3.2c-.037-7.987-.08-15.975.018-23.961a4.211,4.211,0,0,0-4.535-4.585c-1.948.1-3.9.038-5.856.012-.5-.007-.63.139-.636.636a2.736,2.736,0,0,1-2.818,2.848q-10.688.029-21.376,0a2.755,2.755,0,0,1-2.842-2.762c-.014-.644-.244-.73-.792-.722-2,.027-4.006,0-6.009.013a3.975,3.975,0,0,0-4.2,4.2q-.005,10.916,0,21.832a1.643,1.643,0,0,1-.827,1.659,1.507,1.507,0,0,1-2.211-1.495c-.012-3.474-.007-6.948-.007-10.422q0-5.819,0-11.639a7.007,7.007,0,0,1,7.221-7.18c2.028,0,4.057-.013,6.085.008.472,0,.682-.049.74-.622a2.735,2.735,0,0,1,2.928-2.58q10.574-.005,21.148,0a2.712,2.712,0,0,1,2.94,2.7c.028.5.261.495.618.493q3.157-.011,6.314,0a7,7,0,0,1,7.005,5.68,13.64,13.64,0,0,1,.113,2.806q.009,10.307,0,20.614v.812c.8-.39,1.5-.779,2.233-1.084a15.589,15.589,0,0,1,6.86-.971,1.478,1.478,0,0,1,1.359,1.767c-.526,3.21-1.454,6.26-3.695,8.752-.148.165-.552.373-.017.583,4.2,1.652,6.654,4.907,7.916,9.049a23.641,23.641,0,0,1-2.514,20.2,13.2,13.2,0,0,1-9.022,6.272,12.353,12.353,0,0,1-2.338.231c-2.688-.011-5.376-.035-8.063,0-5.091.073-8.939-2.167-11.815-6.257a4.91,4.91,0,0,1-.643-1.028c-.329-.875-.917-1.055-1.816-1.051q-13.158.063-26.317.031a6.988,6.988,0,0,1-7.242-7.3q.013-8.71.007-17.42a1.556,1.556,0,0,1,1.281-1.639,1.574,1.574,0,0,1,1.677,1.029,2.226,2.226,0,0,1,.076.826q.005,8.71.009,17.42a3.89,3.89,0,0,0,2.192,3.636,4.239,4.239,0,0,0,2.066.4l21.146,0c1.42,0,2.841-.04,4.259.011.691.025.783-.144.593-.787a24.317,24.317,0,0,1-.114-14.069c1.154-3.9,3.242-7.127,6.975-9.065a9.741,9.741,0,0,1,2.561-.923c.62-.125.857-.226.467-.911a10.058,10.058,0,0,1-1.215-3.961,1.521,1.521,0,0,1,1.669-1.846,8.961,8.961,0,0,1,7.388,2.861A.55.55,0,0,0,128.888,180.833Zm.31,36.854v.047c1.369,0,2.738-.01,4.106,0a9.61,9.61,0,0,0,8.234-3.963c4.6-6.292,5.276-13.195,2.4-20.345-1.9-4.726-5.834-6.76-10.884-5.966-2.24.352-4.433,1.276-6.689.128a.887.887,0,0,0-.22-.055c-5.233-1.09-9.446,1.063-11.622,5.963a19.035,19.035,0,0,0-1.537,8.21,19.8,19.8,0,0,0,3.49,11.427,10.008,10.008,0,0,0,7.48,4.526C125.691,217.808,127.449,217.687,129.2,217.687Zm-23.993-68.14h.532c3.115,0,6.229-.012,9.344.012.534,0,.706-.148.678-.681-.042-.808-.037-1.621,0-2.43.018-.444-.143-.56-.564-.546-.885.028-1.772.009-2.659.009-5.672,0-11.345.007-17.017-.013-.581,0-.815.126-.767.747a15.141,15.141,0,0,1,.006,2.2c-.04.586.171.717.728.713C98.722,149.534,101.964,149.547,105.205,149.547Zm25.825,35.107a16.99,16.99,0,0,1,2.753-.358,3.721,3.721,0,0,0,2.546-.974,10.886,10.886,0,0,0,3.576-6.316A8.628,8.628,0,0,0,131.03,184.655Zm-7.9-3.542c.978,2.81,1.842,3.436,4.185,3.44A4.5,4.5,0,0,0,123.129,181.112Z" transform="translate(-77.701 -142.871)" fill="#2f4d18"/>
  <path id="Path_1593" data-name="Path 1593" d="M152.764,423.959a9.954,9.954,0,1,1-9.916-10.006A10,10,0,0,1,152.764,423.959Zm-3.05-.028a6.9,6.9,0,1,0-6.953,6.88A6.967,6.967,0,0,0,149.714,423.931Z" transform="translate(-124.463 -372.704)" fill="#2f4d18"/>
  <path id="Path_1594" data-name="Path 1594" d="M160.917,261.383q8.405,0,16.811,0a2.212,2.212,0,0,1,1.113.18,1.444,1.444,0,0,1,.8,1.582,1.311,1.311,0,0,1-1.25,1.225c-1.187.076-2.379.068-3.57.068q-15.366,0-30.731-.009a4.32,4.32,0,0,1-.681-.045,1.485,1.485,0,0,1-1.3-1.526,1.413,1.413,0,0,1,1.392-1.428c1.951-.049,3.9-.042,5.856-.045Q155.137,261.377,160.917,261.383Z" transform="translate(-132.307 -243.349)" fill="#2f4d18"/>
  <path id="Path_1595" data-name="Path 1595" d="M157.58,313.692q6.842,0,13.685,0c1.043,0,1.656.543,1.678,1.441.025.994-.624,1.588-1.794,1.593-2.762.012-5.525.008-8.287.008q-9.314,0-18.627,0a4.094,4.094,0,0,1-.978-.078,1.5,1.5,0,0,1,.334-2.96c1.976-.019,3.953-.008,5.93-.009h8.059Z" transform="translate(-132.278 -287.692)" fill="#2f4d18"/>
  <path id="Path_1596" data-name="Path 1596" d="M155.413,365.853q5.742,0,11.484,0c1.068,0,1.743.558,1.772,1.456a1.583,1.583,0,0,1-1.747,1.58q-11.522.006-23.044,0a1.582,1.582,0,0,1-1.773-1.555,1.551,1.551,0,0,1,1.749-1.48Q149.633,365.849,155.413,365.853Z" transform="translate(-132.304 -331.923)" fill="#2f4d18"/>
  <path id="Path_1597" data-name="Path 1597" d="M79.235,389.928a1.487,1.487,0,0,1-1.5-1.554,1.512,1.512,0,0,1,1.5-1.488,1.528,1.528,0,0,1,1.539,1.527A1.49,1.49,0,0,1,79.235,389.928Z" transform="translate(-77.731 -349.756)" fill="#2f4d18"/>
  <path id="Path_1598" data-name="Path 1598" d="M168.635,459.089a1.539,1.539,0,0,1,2.488-1.329c.342.236.57.82.981.7.356-.1.608-.575.9-.891.652-.707,1.289-1.429,1.951-2.126a1.522,1.522,0,0,1,2.222-.2,1.576,1.576,0,0,1,.014,2.244q-1.927,2.148-3.882,4.27a1.466,1.466,0,0,1-2.168.175c-.733-.621-1.415-1.3-2.1-1.978A1.241,1.241,0,0,1,168.635,459.089Z" transform="translate(-154.797 -407.38)" fill="#2f4d18"/>
</svg>
