<svg xmlns="http://www.w3.org/2000/svg" width="10.574" height="18.545" viewBox="0 0 10.574 18.545">
  <path id="Our_Team_LHS_Arrow" d="M0,1.462c.014.057.028.115.043.172a1.378,1.378,0,0,0,.37.616Q3.679,5.513,6.942,8.778L8.32,10.156a1.292,1.292,0,0,0,1.9,0Q14.177,6.2,18.13,2.251a1.333,1.333,0,0,0,.4-.755.371.371,0,0,1,.016-.053v-.3c-.007-.024-.015-.047-.02-.071A1.3,1.3,0,0,0,17.29,0a1.313,1.313,0,0,0-1,.415Q12.827,3.883,9.362,7.347a.634.634,0,0,0-.072.12c-.056-.064-.079-.094-.105-.121L2.777.938C2.587.748,2.4.557,2.208.37A1.3,1.3,0,0,0,.048.95C.03,1.013.016,1.077,0,1.14Z" transform="translate(10.574) rotate(90)" fill="#fff"/>
</svg>
