<svg xmlns="http://www.w3.org/2000/svg" width="10.444" height="18.318" viewBox="0 0 10.444 18.318">
  <path id="Our_Team_RHS_Arrow" d="M0,9c.014-.057.027-.113.043-.17a1.361,1.361,0,0,1,.365-.609Q3.634,5,6.857,1.774L8.218.413a1.277,1.277,0,0,1,1.88,0q3.905,3.9,7.81,7.809a1.317,1.317,0,0,1,.394.745.366.366,0,0,0,.016.052v.3c-.007.023-.015.046-.019.07a1.283,1.283,0,0,1-1.221,1.055,1.3,1.3,0,0,1-.986-.41Q12.67,6.609,9.247,3.187a.626.626,0,0,1-.071-.118c-.055.064-.078.093-.1.12L2.743,9.518c-.187.187-.372.377-.562.561A1.284,1.284,0,0,1,.047,9.506C.03,9.444.016,9.381,0,9.318Z" transform="translate(10.444) rotate(90)"/>
</svg>
