<svg xmlns="http://www.w3.org/2000/svg" width="17.933" height="17.115" viewBox="0 0 17.933 17.115">
  <path id="Rating_Singal_Vector" d="M526.216-229.751a.986.986,0,0,0-.121.05.507.507,0,0,1-.611.021c-.209-.16-.18-.378-.142-.6q.434-2.5.866-5a1.614,1.614,0,0,0,.01-.183.754.754,0,0,0-.327-.542,3.315,3.315,0,0,1-.433-.419c-.763-.795-1.586-1.529-2.367-2.305a1.123,1.123,0,0,1-.241-.307c-.2-.2-.4-.411-.61-.613a.47.47,0,0,1-.158-.518.459.459,0,0,1,.419-.3c1.4-.2,2.79-.406,4.184-.61.381-.056.763-.108,1.144-.162a.5.5,0,0,0,.395-.307q1.129-2.292,2.264-4.581c.031-.063.066-.124.093-.188a.464.464,0,0,1,.438-.321.465.465,0,0,1,.44.314c.137.282.288.557.433.835a.311.311,0,0,1,.129.159c.586,1.22,1.211,2.421,1.808,3.635a1.039,1.039,0,0,0,.392.443l5.141.749c.078.011.155.025.232.041a.445.445,0,0,1,.267.755c-.072.086-.156.164-.234.245-.012.159-.138.242-.243.326a8.625,8.625,0,0,0-.819.777c-.785.814-1.631,1.564-2.431,2.361a.763.763,0,0,0-.227.754c.3,1.653.576,3.309.857,4.965.008.043.012.087.02.13a.507.507,0,0,1-.215.528.486.486,0,0,1-.547.021c-1.028-.531-2.05-1.073-3.076-1.609-.552-.288-1.1-.586-1.653-.866a.575.575,0,0,0-.575.008c-1.418.768-2.858,1.5-4.28,2.254A.3.3,0,0,1,526.216-229.751Z" transform="translate(-522.055 246.637)" fill="#fec10e"/>
</svg>
