<svg xmlns="http://www.w3.org/2000/svg" width="98.829" height="17.12" viewBox="0 0 98.829 17.12">
  <g id="Rating_Vector" transform="translate(-522.055 246.651)">
    <path id="Path_72" data-name="Path 72" d="M763.466-239.457l-2.477,2.387c-.391.377-.777.759-1.171,1.133a.55.55,0,0,0-.166.545q.46,2.619.908,5.241a.448.448,0,0,1-.163.468.477.477,0,0,1-.564,0c-1.379-.726-2.758-1.454-4.142-2.171-1.012-.524-.67-.514-1.658,0-1.336.694-2.663,1.4-3.995,2.105-.237.1-.472.27-.73.053-.243-.2-.146-.46-.1-.707q.412-2.4.824-4.8c.015-.086.019-.173.027-.26a1.023,1.023,0,0,0-.426-.666,16.113,16.113,0,0,1-1.262-1.216c-.459-.466-.949-.9-1.418-1.356a.863.863,0,0,1-.218-.291c-.221-.224-.439-.45-.664-.67a.455.455,0,0,1-.152-.494.448.448,0,0,1,.411-.314q1.924-.278,3.849-.561c.494-.072.988-.144,1.482-.212a.538.538,0,0,0,.422-.349c.769-1.559,1.545-3.116,2.313-4.677.1-.2.213-.368.458-.372s.381.172.481.381c.124.259.263.511.4.766a.69.69,0,0,1,.2.3c.563,1.152,1.125,2.306,1.7,3.451a1.1,1.1,0,0,0,.417.489l5.2.757a2.009,2.009,0,0,1,.232.043.44.44,0,0,1,.231.725C763.636-239.633,763.548-239.547,763.466-239.457Z" transform="translate(-142.942 -0.007)" fill="#fec10e"/>
    <path id="Path_73" data-name="Path 73" d="M578.807-239.05c-.2-.2-.4-.4-.6-.589a.482.482,0,0,1-.18-.513.462.462,0,0,1,.429-.326c1.283-.182,2.564-.372,3.846-.558l1.481-.213a.52.52,0,0,0,.4-.332q1.151-2.338,2.314-4.671a.82.82,0,0,1,.18-.287.45.45,0,0,1,.706.162c.158.291.3.588.456.882a.6.6,0,0,1,.219.318c.542,1.184,1.16,2.329,1.73,3.5a1,1,0,0,0,.381.421l5.142.749c.087.013.173.026.258.045a.443.443,0,0,1,.258.731c-.076.1-.168.177-.252.266-.041.209-.215.316-.357.436a9.3,9.3,0,0,0-.725.686c-.777.808-1.617,1.553-2.412,2.344a.719.719,0,0,0-.228.7c.293,1.681.578,3.362.873,5.043a.586.586,0,0,1-.188.615.531.531,0,0,1-.637-.007c-1.381-.708-2.765-1.409-4.117-2.17a1.379,1.379,0,0,0-1.544-.038c-1.231.706-2.51,1.328-3.761,2a.869.869,0,0,1-.32.105,1.058,1.058,0,0,0-.168.068.457.457,0,0,1-.54.006.465.465,0,0,1-.173-.512c.181-1.056.366-2.111.545-3.167.119-.7.231-1.408.347-2.113a.869.869,0,0,0-.342-.565c-.482-.42-.92-.887-1.367-1.343-.466-.476-.986-.894-1.442-1.379A.9.9,0,0,1,578.807-239.05Z" transform="translate(-35.733 -0.001)" fill="#fec10e"/>
    <path id="Path_74" data-name="Path 74" d="M638.12-229.744a.19.19,0,0,0-.051.011c-.219.122-.441.238-.678.047s-.162-.414-.121-.651q.43-2.47.851-4.942a1.533,1.533,0,0,0,.01-.183.788.788,0,0,0-.3-.539,11.426,11.426,0,0,1-1.1-1.054c-.562-.578-1.172-1.1-1.739-1.676a.952.952,0,0,1-.236-.312c-.2-.2-.4-.412-.612-.611a.459.459,0,0,1-.164-.491.444.444,0,0,1,.4-.321c1.169-.167,2.338-.34,3.507-.511q.922-.134,1.845-.265a.565.565,0,0,0,.431-.377q1.153-2.338,2.31-4.673l.034-.071a.438.438,0,0,1,.412-.275.439.439,0,0,1,.417.267c.15.3.3.589.454.883a1.944,1.944,0,0,1,.413.718c.5,1.068,1.052,2.11,1.573,3.167a.9.9,0,0,0,.343.35l5.115.749a3.069,3.069,0,0,1,.31.051.446.446,0,0,1,.238.726c-.077.094-.164.18-.247.269a1.054,1.054,0,0,1-.4.47,11.78,11.78,0,0,0-.91.871c-.711.737-1.48,1.416-2.206,2.138a.7.7,0,0,0-.214.681c.3,1.687.578,3.377.878,5.064a.563.563,0,0,1-.2.606.525.525,0,0,1-.614-.006q-2.235-1.142-4.444-2.331a.93.93,0,0,0-1,.006c-1.339.726-2.7,1.412-4.043,2.134A.839.839,0,0,1,638.12-229.744Z" transform="translate(-71.467 -0.009)" fill="#fec10e"/>
    <path id="Path_75" data-name="Path 75" d="M526.216-229.751a.986.986,0,0,0-.121.05.507.507,0,0,1-.611.021c-.209-.16-.18-.378-.142-.6q.434-2.5.866-5a1.614,1.614,0,0,0,.01-.183.754.754,0,0,0-.327-.542,3.315,3.315,0,0,1-.433-.419c-.763-.795-1.586-1.529-2.367-2.305a1.123,1.123,0,0,1-.241-.307c-.2-.2-.4-.411-.61-.613a.47.47,0,0,1-.158-.518.459.459,0,0,1,.419-.3c1.4-.2,2.79-.406,4.184-.61.381-.056.763-.108,1.144-.162a.5.5,0,0,0,.395-.307q1.129-2.292,2.264-4.581c.031-.063.066-.124.093-.188a.464.464,0,0,1,.438-.321.465.465,0,0,1,.44.314c.137.282.288.557.433.835a.311.311,0,0,1,.129.159c.586,1.22,1.211,2.421,1.808,3.635a1.039,1.039,0,0,0,.392.443l5.141.749c.078.011.155.025.232.041a.445.445,0,0,1,.267.755c-.072.086-.156.164-.234.245-.012.159-.138.242-.243.326a8.625,8.625,0,0,0-.819.777c-.785.814-1.631,1.564-2.431,2.361a.763.763,0,0,0-.227.754c.3,1.653.576,3.309.857,4.965.008.043.012.087.02.13a.507.507,0,0,1-.215.528.486.486,0,0,1-.547.021c-1.028-.531-2.05-1.073-3.076-1.609-.552-.288-1.1-.586-1.653-.866a.575.575,0,0,0-.575.008c-1.418.768-2.858,1.5-4.28,2.254A.3.3,0,0,1,526.216-229.751Z" transform="translate(0 -0.009)" fill="#fec10e"/>
    <path id="Path_76" data-name="Path 76" d="M702.091-241.26l5.142.751a2.664,2.664,0,0,1,.284.049.446.446,0,0,1,.237.726c-.077.094-.164.18-.247.269a1.546,1.546,0,0,1-.515.58c-.292.253-.568.52-.835.8-.7.725-1.452,1.394-2.168,2.1a.694.694,0,0,0-.215.681c.3,1.687.581,3.377.878,5.064a.562.562,0,0,1-.2.606.525.525,0,0,1-.614-.007c-1.491-.759-2.968-1.544-4.444-2.331a.933.933,0,0,0-1,.007c-1.341.724-2.7,1.417-4.043,2.134a.845.845,0,0,1-.274.079c-.237.1-.468.271-.729.057-.245-.2-.151-.456-.109-.7q.414-2.406.827-4.812c.015-.085.016-.173.024-.259a.856.856,0,0,0-.333-.576,14.939,14.939,0,0,1-1.265-1.22c-.485-.493-1-.949-1.5-1.433a1.467,1.467,0,0,1-.229-.284,5.987,5.987,0,0,0-.651-.675.472.472,0,0,1-.167-.49.458.458,0,0,1,.426-.33q2.1-.3,4.209-.611c.372-.054.744-.109,1.117-.159a.541.541,0,0,0,.42-.353q1.106-2.244,2.218-4.485c.054-.109.1-.223.166-.327a.442.442,0,0,1,.789.013c.166.3.315.6.472.9a3.376,3.376,0,0,1,.514.934c.467,1,.981,1.968,1.467,2.954A.9.9,0,0,0,702.091-241.26Z" transform="translate(-107.205)" fill="#fec10e"/>
  </g>
</svg>
