<svg xmlns="http://www.w3.org/2000/svg" xmlns:xlink="http://www.w3.org/1999/xlink" width="275" height="315" viewBox="0 0 275 315">
  <defs>
    <clipPath id="clip-path">
      <rect id="Rectangle_6069" data-name="Rectangle 6069" width="275" height="315" transform="translate(1645 2846)" fill="#fff"/>
    </clipPath>
  </defs>
  <g id="RHS_Logo_Vector" transform="translate(-1645 -2846)" clip-path="url(#clip-path)">
    <g id="Group_6234" data-name="Group 6234" transform="translate(1213.524 2770.719)" opacity="0.08">
      <g id="Path_1637" data-name="Path 1637" transform="translate(621.144 90.007) rotate(90)" fill="#fff">
        <path d="M 67.91627502441406 59.40086364746094 C 41.26779174804688 59.40086364746094 17.92879104614258 41.07876205444336 8.65091609954834 32.70043182373047 C 17.92879104614258 24.32210159301758 41.26779174804688 6 67.91627502441406 6 C 94.56477355957031 6 117.9037704467773 24.32210159301758 127.1816329956055 32.70043182373047 C 117.9037704467773 41.07876205444336 94.56477355957031 59.40086364746094 67.91627502441406 59.40086364746094 Z" stroke="none"/>
        <path d="M 67.91627502441406 11.99999237060547 C 47.24093627929688 11.99999237060547 28.47264099121094 24.1856575012207 17.86002349853516 32.72441101074219 C 28.42966461181641 41.26089096069336 47.11808013916016 53.40087127685547 67.91627502441406 53.40087127685547 C 88.59161376953125 53.40087127685547 107.3599090576172 41.21520614624023 117.9725189208984 32.67645263671875 C 107.4028854370117 24.13997268676758 88.71446228027344 11.99999237060547 67.91627502441406 11.99999237060547 M 67.91627502441406 -7.62939453125e-06 C 105.4253921508789 -7.62939453125e-06 135.8325347900391 32.70043182373047 135.8325347900391 32.70043182373047 C 135.8325347900391 32.70043182373047 105.4253921508789 65.40087127685547 67.91627502441406 65.40087127685547 C 30.40715789794922 65.40087127685547 1.52587890625e-05 32.70043182373047 1.52587890625e-05 32.70043182373047 C 1.52587890625e-05 32.70043182373047 30.40715789794922 -7.62939453125e-06 67.91627502441406 -7.62939453125e-06 Z" stroke="none" fill="#2f4d18"/>
      </g>
      <g id="Path_1638" data-name="Path 1638" transform="translate(621.144 235.828) rotate(90)" fill="#fff">
        <path d="M 67.91627502441406 59.40086364746094 C 41.26779174804688 59.40086364746094 17.92879104614258 41.07876205444336 8.65091609954834 32.70043182373047 C 17.92879104614258 24.32210159301758 41.26779174804688 6 67.91627502441406 6 C 94.56477355957031 6 117.9037704467773 24.32210159301758 127.1816329956055 32.70043182373047 C 117.9037704467773 41.07876205444336 94.56477355957031 59.40086364746094 67.91627502441406 59.40086364746094 Z" stroke="none"/>
        <path d="M 67.91627502441406 11.99999237060547 C 47.24093627929688 11.99999237060547 28.47264099121094 24.1856575012207 17.86002349853516 32.72441101074219 C 28.42966461181641 41.26089096069336 47.11808013916016 53.40087127685547 67.91627502441406 53.40087127685547 C 88.59161376953125 53.40087127685547 107.3599090576172 41.21520614624023 117.9725189208984 32.67645263671875 C 107.4028854370117 24.13997268676758 88.71446228027344 11.99999237060547 67.91627502441406 11.99999237060547 M 67.91627502441406 -7.62939453125e-06 C 105.4253921508789 -7.62939453125e-06 135.8325347900391 32.70043182373047 135.8325347900391 32.70043182373047 C 135.8325347900391 32.70043182373047 105.4253921508789 65.40087127685547 67.91627502441406 65.40087127685547 C 30.40715789794922 65.40087127685547 1.52587890625e-05 32.70043182373047 1.52587890625e-05 32.70043182373047 C 1.52587890625e-05 32.70043182373047 30.40715789794922 -7.62939453125e-06 67.91627502441406 -7.62939453125e-06 Z" stroke="none" fill="#2f4d18"/>
      </g>
      <g id="Group_6228" data-name="Group 6228" transform="translate(729.274 198.138) rotate(90)">
        <g id="Path_1639" data-name="Path 1639" transform="translate(65.401 0) rotate(90)" fill="#fff">
          <path d="M 67.91627502441406 59.40086364746094 C 41.26779174804688 59.40086364746094 17.92879104614258 41.07876205444336 8.65091609954834 32.70043182373047 C 17.92879104614258 24.32210159301758 41.26779174804688 6 67.91627502441406 6 C 94.56477355957031 6 117.9037704467773 24.32210159301758 127.1816329956055 32.70043182373047 C 117.9037704467773 41.07876205444336 94.56477355957031 59.40086364746094 67.91627502441406 59.40086364746094 Z" stroke="none"/>
          <path d="M 67.91627502441406 11.99999237060547 C 47.24093627929688 11.99999237060547 28.47264099121094 24.1856575012207 17.86002349853516 32.72441101074219 C 28.42966461181641 41.26089096069336 47.11808013916016 53.40087127685547 67.91627502441406 53.40087127685547 C 88.59161376953125 53.40087127685547 107.3599090576172 41.21520614624023 117.9725189208984 32.67645263671875 C 107.4028854370117 24.13997268676758 88.71446228027344 11.99999237060547 67.91627502441406 11.99999237060547 M 67.91627502441406 -7.62939453125e-06 C 105.4253921508789 -7.62939453125e-06 135.8325347900391 32.70043182373047 135.8325347900391 32.70043182373047 C 135.8325347900391 32.70043182373047 105.4253921508789 65.40087127685547 67.91627502441406 65.40087127685547 C 30.40715789794922 65.40087127685547 1.52587890625e-05 32.70043182373047 1.52587890625e-05 32.70043182373047 C 1.52587890625e-05 32.70043182373047 30.40715789794922 -7.62939453125e-06 67.91627502441406 -7.62939453125e-06 Z" stroke="none" fill="#2f4d18"/>
        </g>
        <g id="Path_1640" data-name="Path 1640" transform="translate(65.401 145.821) rotate(90)" fill="#fff">
          <path d="M 67.91627502441406 59.40086364746094 C 41.26779174804688 59.40086364746094 17.92879104614258 41.07876205444336 8.65091609954834 32.70043182373047 C 17.92879104614258 24.32210159301758 41.26779174804688 6 67.91627502441406 6 C 94.56477355957031 6 117.9037704467773 24.32210159301758 127.1816329956055 32.70043182373047 C 117.9037704467773 41.07876205444336 94.56477355957031 59.40086364746094 67.91627502441406 59.40086364746094 Z" stroke="none"/>
          <path d="M 67.91627502441406 11.99999237060547 C 47.24093627929688 11.99999237060547 28.47264099121094 24.1856575012207 17.86002349853516 32.72441101074219 C 28.42966461181641 41.26089096069336 47.11808013916016 53.40087127685547 67.91627502441406 53.40087127685547 C 88.59161376953125 53.40087127685547 107.3599090576172 41.21520614624023 117.9725189208984 32.67645263671875 C 107.4028854370117 24.13997268676758 88.71446228027344 11.99999237060547 67.91627502441406 11.99999237060547 M 67.91627502441406 -7.62939453125e-06 C 105.4253921508789 -7.62939453125e-06 135.8325347900391 32.70043182373047 135.8325347900391 32.70043182373047 C 135.8325347900391 32.70043182373047 105.4253921508789 65.40087127685547 67.91627502441406 65.40087127685547 C 30.40715789794922 65.40087127685547 1.52587890625e-05 32.70043182373047 1.52587890625e-05 32.70043182373047 C 1.52587890625e-05 32.70043182373047 30.40715789794922 -7.62939453125e-06 67.91627502441406 -7.62939453125e-06 Z" stroke="none" fill="#2f4d18"/>
        </g>
      </g>
      <g id="Path_1634" data-name="Path 1634" transform="translate(621.494 262.019) rotate(135)" fill="#fff">
        <path d="M 90.69701385498047 81.33611297607422 C 52.76119613647461 81.33561706542969 19.884765625 54.18393707275391 8.575569152832031 43.66700744628906 C 19.88506889343262 33.15050506591797 52.76182556152344 5.999997615814209 90.69342803955078 5.999997615814209 C 128.6291961669922 6.000498294830322 161.5056304931641 33.15217590332031 172.8148345947266 43.66910552978516 C 161.5053253173828 54.18560409545898 128.6285552978516 81.33611297607422 90.69695281982422 81.33611297607422 L 90.69701385498047 81.33611297607422 Z" stroke="none"/>
        <path d="M 90.69333648681641 11.99998474121094 L 90.69351196289062 11.99998474121094 C 59.28992462158203 11.99998474121094 31.26417541503906 32.00286102294922 17.592529296875 43.66715240478516 C 31.263916015625 55.33189392089844 59.28984832763672 75.335693359375 90.69686889648438 75.33612823486328 C 122.1166076660156 75.33612823486328 150.1571960449219 55.31082153320312 163.8210906982422 43.64912414550781 C 150.2060089111328 31.98725891113281 122.2639389038086 12.00041961669922 90.69333648681641 11.99998474121094 M 90.69351196289062 -1.52587890625e-05 C 140.7916412353516 0.01760101318359375 181.3903656005859 43.66926956176758 181.3903656005859 43.66926956176758 C 181.3903656005859 43.66926956176758 140.7864379882812 87.33676910400391 90.69576263427734 87.33612823486328 C 40.60618591308594 87.33544921875 1.52587890625e-05 43.66684341430664 1.52587890625e-05 43.66684341430664 C 1.52587890625e-05 43.66684341430664 40.608154296875 -1.52587890625e-05 90.69351196289062 -1.52587890625e-05 Z" stroke="none" fill="#2f4d18"/>
      </g>
      <g id="Path_1636" data-name="Path 1636" transform="translate(618.219 200.259) rotate(45)" fill="#fff">
        <path d="M 90.69388580322266 81.33590698242188 L 90.69386291503906 81.33590698242188 C 52.75920867919922 81.33676910400391 19.88417053222656 54.18636322021484 8.575439453125 43.66988754272461 C 19.88466644287109 33.15288543701172 52.7612190246582 6.000861644744873 90.69603729248047 6.000027656555176 C 128.6307373046875 5.99916934967041 161.5057830810547 33.14955520629883 172.8145141601562 43.6660270690918 C 161.5052795410156 54.18303298950195 128.6287231445312 81.33507537841797 90.69388580322266 81.33590698242188 Z" stroke="none"/>
        <path d="M 90.69376373291016 75.33589935302734 C 122.10009765625 75.33523559570312 150.1262512207031 55.33096313476562 163.7976684570312 43.66611099243164 C 150.1268920898438 32.00197219848633 122.1022644042969 11.99931812286377 90.69615173339844 12.00000476837158 C 59.27099990844727 12.00069141387939 31.23141288757324 32.02783584594727 17.56903648376465 43.68966674804688 C 31.18349647521973 55.35092926025391 59.12418746948242 75.33660888671875 90.6937255859375 75.33589935302734 L 90.69376373291016 75.33589935302734 M 90.69401550292969 87.33589935302734 C 40.60458374023438 87.33704376220703 1.252092624781653e-05 43.66996765136719 1.252092624781653e-05 43.66996765136719 C 1.252092624781653e-05 43.66996765136719 40.60647583007812 0.00111160718370229 90.69590759277344 4.464285666472279e-06 C 140.7853698730469 -0.001102678594179451 181.3899383544922 43.66596984863281 181.3899383544922 43.66596984863281 C 181.3899383544922 43.66596984863281 140.7834777832031 87.33482360839844 90.69401550292969 87.33589935302734 Z" stroke="none" fill="#2f4d18"/>
      </g>
      <g id="Path_1633" data-name="Path 1633" transform="translate(556.468 203.544) rotate(-45)" fill="#fff">
        <path d="M 90.69499206542969 81.33588409423828 C 52.6624755859375 81.33588409423828 19.85241317749023 54.19097900390625 8.569513320922852 43.67342376708984 C 19.87369537353516 33.16011810302734 52.75450897216797 6.000004768371582 90.69499206542969 6.000004768371582 C 128.6297302246094 6.000004768371582 161.5055999755859 33.15121078491211 172.8145751953125 43.66794586181641 C 161.5055999755859 54.1846809387207 128.6297302246094 81.33588409423828 90.69499206542969 81.33588409423828 Z" stroke="none"/>
        <path d="M 90.69499206542969 11.99998474121094 C 59.28875732421875 11.99998474121094 31.26327514648438 32.00345230102539 17.59219360351562 43.66794967651367 C 31.26329040527344 55.33243560791016 59.28875732421875 75.33587646484375 90.69499206542969 75.33587646484375 C 122.1200485229492 75.33587646484375 150.1589660644531 55.30956649780273 163.8210296630859 43.64810180664062 C 150.2062377929688 31.98648071289062 122.2646560668945 11.99998474121094 90.69499206542969 11.99998474121094 M 90.69499206542969 -1.52587890625e-05 C 140.784423828125 -1.52587890625e-05 181.3899536132812 43.66794586181641 181.3899536132812 43.66794586181641 C 181.3899536132812 43.66794586181641 140.784423828125 87.33587646484375 90.69499206542969 87.33587646484375 C 40.60552978515625 87.33587646484375 3.0517578125e-05 43.66794586181641 3.0517578125e-05 43.66794586181641 C 3.0517578125e-05 43.66794586181641 40.60552978515625 -1.52587890625e-05 90.69499206542969 -1.52587890625e-05 Z" stroke="none" fill="#2f4d18"/>
      </g>
      <g id="Path_1635" data-name="Path 1635" transform="translate(559.738 265.3) rotate(-135)" fill="#fff">
        <path d="M 90.69432830810547 81.33571624755859 C 52.75970077514648 81.33602142333984 19.88426208496094 54.18521499633789 8.575407981872559 43.66860580444336 C 19.88445472717285 33.15179061889648 52.76048278808594 6.000342845916748 90.69518280029297 6.000009059906006 C 128.6298065185547 5.999699115753174 161.5052337646484 33.15048980712891 172.8140716552734 43.66709136962891 C 161.5050354003906 54.18392181396484 128.6290283203125 81.33540344238281 90.69432830810547 81.33571624755859 Z" stroke="none"/>
        <path d="M 90.69427490234375 75.33571624755859 C 122.1004638671875 75.33544158935547 150.1260986328125 55.33173751831055 163.7972869873047 43.66713333129883 C 150.1263580322266 32.00280380249023 122.1013259887695 11.99972534179688 90.69524383544922 12.00000476837158 C 59.27021026611328 12.00028514862061 31.23111152648926 32.02685546875 17.5689525604248 43.68843460083008 C 31.18359184265137 55.34988784790039 59.12473678588867 75.33599853515625 90.69427490234375 75.33571624755859 M 90.69438171386719 87.33571624755859 C 40.60506057739258 87.33615112304688 -9.704589501779992e-06 43.66864776611328 -9.704589501779992e-06 43.66864776611328 C -9.704589501779992e-06 43.66864776611328 40.60581207275391 0.0004333670367486775 90.69512939453125 4.795619588549016e-06 C 140.7844543457031 -0.000423775811214 181.3894958496094 43.66707611083984 181.3894958496094 43.66707611083984 C 181.3894958496094 43.66707611083984 140.7837066650391 87.33528900146484 90.69438171386719 87.33571624755859 Z" stroke="none" fill="#2f4d18"/>
      </g>
    </g>
  </g>
</svg>
