<svg xmlns="http://www.w3.org/2000/svg" width="24.102" height="22.661" viewBox="0 0 24.102 22.661">
  <path id="Submit_Arrow" d="M18.115,6.858H1.106A.948.948,0,0,1,.054,6.2.966.966,0,0,1,.889,4.907a3.493,3.493,0,0,1,.365-.014H18.089l.079-.105a.81.81,0,0,1-.221-.114C16.961,3.7,15.982,2.716,15,1.74a.978.978,0,0,1-.319-.99A.973.973,0,0,1,16.307.279c.377.355.735.729,1.1,1.1l3.7,3.7a1,1,0,0,1,0,1.588q-2.366,2.37-4.732,4.739a.955.955,0,0,1-1.522-.073.914.914,0,0,1,.044-1.212c.2-.221.415-.425.625-.635l2.536-2.539A.959.959,0,0,0,18.115,6.858Z" transform="translate(0 13.53) rotate(-39)" fill="#fff"/>
</svg>
